<svg xmlns="http://www.w3.org/2000/svg" width="1200" height="320" viewBox="0 0 1200 320" fill="none">
  <rect width="1200" height="320" fill="#F9F9F9"/>
  <g stroke="#6A6A6A" stroke-width="2">
    <path d="M90 60H300V130H470V200H690V260H1110"/>
    <path d="M90 260H240V190H430V120H640V60H1110"/>
    <path d="M150 160H350V80H540V240H760V160H1060"/>
  </g>
  <g fill="#151515">
    <rect x="82" y="52" width="16" height="16" rx="2"/>
    <rect x="1080" y="252" width="16" height="16" rx="2"/>
    <rect x="1080" y="52" width="16" height="16" rx="2"/>
    <rect x="142" y="152" width="16" height="16" rx="2"/>
    <rect x="1052" y="152" width="16" height="16" rx="2"/>
  </g>
  <g fill="#1F4FFF">
    <circle cx="470" cy="130" r="7"/>
    <circle cx="640" cy="60" r="7"/>
    <circle cx="540" cy="240" r="7"/>
    <circle cx="760" cy="160" r="7"/>
  </g>
</svg>
