<svg xmlns="http://www.w3.org/2000/svg" width="1200" height="320" viewBox="0 0 1200 320" fill="none">
  <rect width="1200" height="320" fill="#F8F8F8"/>
  <g opacity="0.7" stroke="#7A7A7A" stroke-width="1.4">
    <path d="M-40 250C120 140 300 130 460 220C620 310 800 305 980 205C1060 160 1130 132 1240 140"/>
    <path d="M-40 210C120 100 300 90 460 180C620 270 800 265 980 165C1060 120 1130 92 1240 100"/>
    <path d="M-40 290C120 180 300 170 460 260C620 350 800 345 980 245C1060 200 1130 172 1240 180"/>
  </g>
  <g opacity="0.35" stroke="#A3A3A3" stroke-dasharray="5 8">
    <line x1="0" y1="40" x2="1200" y2="40"/>
    <line x1="0" y1="160" x2="1200" y2="160"/>
    <line x1="0" y1="280" x2="1200" y2="280"/>
  </g>
</svg>
